<?xml version="1.0" encoding="UTF-8"?><svg id="a" xmlns="http://www.w3.org/2000/svg" viewBox="0 0 400 100"><defs><style>.b{fill:#fff;}.c{fill:#b83938;}.d{fill:#2f4d9b;}</style></defs><g><rect class="b" width="400" height="100"/><path class="c" d="M42.85,12.85c-6.32-.02-12.5-1.68-17.68,2.81-2.49,2.17-3.06,5.75-3.44,8.8-.84,6.88,4.67,14.77-4.48,17.76-1.06,.35-1.8,1.96-.74,2.78,1.62,1.25,3.38,2.11,5.17,3.09,2.05,1.13,2.23,10.09,2.44,11.99,.69,6.19-2.69,13.52-.94,19.44,1.92,6.52,13.36,10.31,19.04,6.27,1.74-1.24,.07-4.13-1.68-2.88-4.02,2.86-13.73-.24-14.25-5.46-.48-4.8,1.34-10.25,1.3-15.13-.03-3.86-.11-9.61-1.28-13.24-1.21-3.75-4.56-4.21-7.45-6.44-.24,.93-.49,1.86-.74,2.78,5.06-1.65,7.78-3.69,7.88-9.3,.11-6.56-4.13-16.79,4.64-19.97,3.6-1.31,8.45,0,12.19,.02,2.15,0,2.15-3.33,0-3.33h0Zm56.31,3.33c3.23,0,6.43-.41,9.65-.39,9.73,.06,8.14,11.51,7.36,18.01-.79,6.65,1.61,9.64,7.7,11.62-.25-.93-.49-1.86-.74-2.78-2.09,1.61-6.16,2.46-7.08,5.31-1.21,3.76-1.07,8.19-1.51,12.13-.59,5.31,.53,10.44,1.11,15.68,.67,6.07-9.36,10.61-14.21,7.16-1.75-1.25-3.42,1.64-1.68,2.88,5.68,4.04,17.13,.25,19.04-6.27,.54-1.83,.21-4.09-.08-5.93-.7-4.56-1.15-8.91-.86-13.51,.19-3.06,.79-5.98,.92-9.05,.13-3.32,4.52-4.35,6.7-6.03,1.06-.82,.32-2.44-.74-2.78-7.81-2.55-5.02-9.15-4.49-15.44,.27-3.21-.31-7.15-2.36-9.76-4.83-6.13-11.86-4.19-18.74-4.17-2.15,0-2.15,3.34,0,3.33Z"/><path class="c" d="M54.04,54.24c-7.63-3.93-12.58,9.61-4.53,11.76,5.77,1.54,10.03-9.66,4.53-12.18-1.94-.89-3.63,1.98-1.68,2.88,2.18,1,.12,5.52-1.64,6.06-1.64,.5-2.22-2.21-2-3.27,.34-1.65,1.91-3.26,3.64-2.37,1.91,.98,3.59-1.89,1.68-2.88h0Zm15.14-1c-2.87,1.04-4.28,3.74-3.78,6.72,.44,2.65,2.4,4.99,5.22,5.02,3.4,.03,6.3-3.59,5.92-6.84-.41-3.51-3.68-5.97-7.12-5.79-2.14,.11-2.15,3.44,0,3.33,1.76-.09,3.28,.81,3.78,2.56,.47,1.64-1.26,3.42-2.85,3.41-1.03,0-1.51-1.51-1.68-2.28-.26-1.18,.24-2.49,1.4-2.91,2-.73,1.14-3.95-.88-3.21Zm17.09,.76c-1.63,2.37-1.73,5.42-.07,7.81,1.46,2.09,4.11,3.51,6.67,2.75,3.22-.95,4.35-5.13,3.57-8.04-1.08-4.01-5.72-5.75-9.15-3.53-1.8,1.16-.13,4.04,1.68,2.88,4.39-2.83,5.81,5.3,2.65,5.58-1.11,.1-2.2-.75-2.81-1.71-.86-1.35-.52-2.8,.34-4.05,1.22-1.78-1.67-3.44-2.88-1.68Z"/></g><path class="d" d="M162.47,71.81c-9.07,0-15.47-6.03-15.47-14.99s6.4-14.96,15.47-14.96c7.3,0,12.77,3.79,14.18,10.61l-7.47,.81c-.9-3.45-3.4-5.05-6.79-5.05-4.35,0-7.3,3.42-7.3,8.59s2.95,8.59,7.3,8.59c3.4,0,5.9-1.63,6.79-5.05l7.47,.81c-1.4,6.82-7.02,10.64-14.18,10.64h0Zm38.69-29.95c6.46,0,10.33,3.59,10.33,10.81v18.61h-8.11v-17.29c0-4.24-2.36-5.64-5.25-5.64s-6.29,1.49-6.34,7.02v15.92h-8.08V28.16h8.08v17.71c2.05-2.5,5.28-4.01,9.38-4.01h0Zm23.54-3.76c-2.56,0-4.69-2.08-4.69-4.66s2.13-4.63,4.69-4.63,4.63,2.08,4.63,4.63-2.13,4.66-4.63,4.66Zm-4.13,33.18v-28.86h8.14v28.86h-8.14Zm17.81,0V28.16h8.17v43.12h-8.17Zm44.98-14.85l-.08,1.94h-21.39c.34,4.8,3.54,7.1,7.38,7.1,2.89,0,5.14-1.35,6.23-3.9l7.41,1.1c-1.91,5.84-7.1,9.18-13.58,9.18-9.32,0-15.41-5.5-15.41-14.99s6.26-15.05,15.16-15.05c8.17,0,14.26,4.52,14.29,14.62h0Zm-14.23-8.9c-3.68,0-6.23,1.71-7.02,5.56h13.25c-.42-3.68-2.92-5.56-6.23-5.56Zm29.43-.54c1.46-2.55,5.25-4.91,9.43-4.91v7.21c-6.12,0-9.04,1.8-9.04,7.92v14.06h-8.14v-28.86h7.75v4.57h0Zm34.6-4.58h8.08v28.86h-7.66l-.2-3.48c-2.02,2.55-5.22,4.04-9.18,4.04-6.93,0-10.75-3.62-10.75-9.99v-19.42h8.11v17.68c0,3.82,2.39,5.22,5.19,5.22,3.34,0,6.37-1.68,6.4-6.99v-15.91h0Zm28.51,28.86c-5.61,0-8.81-3.26-8.81-9.01v-13.64h-5.67v-6.2h1.82c3.06,0,4.74-1.18,4.74-5.5v-3.82h7.3v9.32h5.95v6.2h-5.95v12.77c0,2.58,1.26,3.73,3.34,3.73h2.61v6.15h-5.33Z"/></svg>